<?xml version="1.0" encoding="utf-8"?>
<!-- Generator: Adobe Illustrator 24.1.1, SVG Export Plug-In . SVG Version: 6.00 Build 0)  -->
<svg version="1.1" id="Capa_1" xmlns="http://www.w3.org/2000/svg" xmlns:xlink="http://www.w3.org/1999/xlink" x="0px" y="0px"
	 viewBox="0 0 800 800" style="enable-background:new 0 0 800 800;" xml:space="preserve">
<style type="text/css">
	.st0{fill:none;stroke:#5C544C;stroke-width:68;stroke-miterlimit:133.3333;}
	.st1{fill:none;stroke:#5C544C;stroke-width:50;stroke-linecap:round;stroke-miterlimit:133.3333;}
</style>
<path class="st0" d="M125.2,376.4c-4.1-60.8-6.1-91.2,12-110.5s48.5-19.3,109.5-19.3h165.8c61,0,91.4,0,109.5,19.3s16,49.7,12,110.5
	l-10.4,156.2c-5.4,80.8-8.1,121.2-34.4,145.8C462.7,703,422.3,703,341.3,703h-23.5c-81,0-121.4,0-147.8-24.6
	c-26.3-24.6-29-65-34.4-145.8L125.2,376.4z"/>
<path class="st0" d="M542.5,550.9h30.4c67.2,0,121.7-54.5,121.7-121.7s-54.5-121.7-121.7-121.7h-30.4"/>
<path class="st0" d="M512.1,581.3H147"/>
<path class="st1" d="M209.4,180.6l12.5-17.5c6.9-9.7,4.7-23.1-5-30c-9.7-6.9-11.9-20.3-5-30l12.5-17.5 M452.8,180.6l12.5-17.5
	c6.9-9.7,4.7-23.1-5-30c-9.7-6.9-11.9-20.3-5-30l12.5-17.5 M331.1,180.6l12.5-17.5c6.9-9.7,4.7-23.1-5-30c-9.7-6.9-11.9-20.3-5-30
	L346,85.6"/>
</svg>
