<?xml version="1.0" encoding="utf-8"?>
<!-- Generator: Adobe Illustrator 24.1.1, SVG Export Plug-In . SVG Version: 6.00 Build 0)  -->
<svg version="1.1" id="Capa_1" xmlns="http://www.w3.org/2000/svg" xmlns:xlink="http://www.w3.org/1999/xlink" x="0px" y="0px"
	 viewBox="0 0 1092 288" style="enable-background:new 0 0 1092 288;" xml:space="preserve">
<style type="text/css">
	.st0{fill-rule:evenodd;clip-rule:evenodd;fill:#FFFFFF;}
</style>
<g>
	<path class="st0" d="M202.5,10.5c12.7,0.5,25.4,1.3,38,2.5c34.9,38.2,70.4,75.7,106.5,112.5c0.7-33.3,0.7-66.7,0-100
		c-6.1-2-12.2-3.6-18.5-5c0-1.7,0-3.3,0-5c17.7,0.8,35.3,1.1,53,1c0,1.7,0,3.3,0,5c-6.4,0.8-12.6,2.5-18.5,5
		c-0.5,45.3-0.7,90.7-0.5,136c-3.8,0-7.4,0.2-11,0.5C312.2,124.1,274,84.2,237,43.5c-0.7,36.7-0.7,73.3,0,110c1,1.8,2.5,2.9,4.5,3.5
		c4.7,0.8,9.3,1.7,14,2.5c0,1.7,0,3.3,0,5c-17.7,0.6-35.3,1.3-53,2c-0.3-1.8,0-3.5,1-5c4.7-1.5,9.3-3,14-4.5
		c1.4-0.5,2.6-1.3,3.5-2.5c0.7-44.3,0.7-88.7,0-133c-5.8-1.9-11.7-3.9-17.5-6C202.5,14,202.2,12.3,202.5,10.5z"/>
</g>
<g>
	<path class="st0" d="M871.5,10.5c5.3-0.2,10.7,0,16,0.5c-2.8,11.4-5.3,22.9-7.5,34.5c-1.8,1.3-3.6,1.3-5.5,0
		c-3.2-7.8-5.5-15.8-7-24c-20,0.9-40,1.6-60,2c0,19.7,0,39.3,0,59c14.7,0.4,29.4-0.1,44-1.5c2.7-4.9,4.7-10,6-15.5
		c2.2-1,4.6-1.3,7-1c0,15,0,30,0,45c-2.4,0.3-4.8,0-7-1c-1.6-5-3.1-10-4.5-15c-0.8-0.6-1.6-1.1-2.5-1.5c-14.3-0.5-28.7-0.7-43-0.5
		c0,21,0.3,42,1,63c20.7-0.1,41.3,0.3,62,1c3.9-9.4,8.5-18.4,14-27c1.9-1,3.9-1.3,6-1c-0.5,12.7-1.5,25.4-3,38c-2.7,0.3-5.3,0.7-8,1
		c-38.6-1.8-77.3-2.8-116-3c-0.2-2,0.1-3.8,1-5.5c4.3-1,8.7-2,13-3c1.8-0.3,3.3-1.1,4.5-2.5c0.7-42.3,0.7-84.7,0-127
		c-5.8-2.6-12-4.3-18.5-5c0-1.7,0-3.3,0-5C799.7,14.7,835.7,13,871.5,10.5z"/>
</g>
<path class="st0" d="M498.5,18c-32.3-0.5-64.7-0.7-97-0.5c-0.2,1.6,0.1,3.1,1,4.5c6.1,1.2,11.9,3.1,17.5,5.5
	c0.7,41.3,0.7,82.7,0,124c-5.9,2.5-12.1,4.2-18.5,5c0,1.7,0,3.3,0,5c29.3,0.2,58.7,0,88-0.5c20.1-0.9,38.4-6.9,55-18
	c9.4-7.4,16.6-16.6,21.5-27.5C583.1,55.8,560.6,23.3,498.5,18z M490.5,152c-14.3,1.8-28.7,2-43,0.5c-1.3-42-1.3-84,0-126
	c16-0.4,32,0.1,48,1.5c33.7,5.7,49.7,25.7,48,60C544.9,125.3,527.2,146.6,490.5,152z"/>
<path class="st0" d="M178,157.5c-3-2.4-5.4-5.4-7-9c-20.3-48.3-39.4-96.9-57.5-146c-5,0-10,0.3-15,1c-23,51.7-45.9,103.7-68.5,156
	c-5.8,5.3-12.6,8.7-20.5,10c0,2,0,4,0,6c18.3-1.1,36.7-2.1,55-3c0-2,0-4,0-6c-5.4-0.7-10.7-1.7-16-3c-0.4-6.3,0.8-12.3,3.5-18
	c5.6-11.7,10.4-23.7,14.5-36c21-0.3,42,0,63,1c6,14.6,11.4,29.4,16,44.5c-0.1,1.4-0.4,2.8-1,4c-4.8,2.2-9.8,3.7-15,4.5c0,2,0,4,0,6
	c18-1.1,36-1.8,54-2c3.5-1,7.1-1.3,11-1c0-1.7,0-3.3,0-5C188.9,160.7,183.4,159.4,178,157.5z M97.5,98.5c-8.2-0.3-16.2-1.3-24-3
	c7.9-20.7,16.5-41.1,26-61c8.5,20.9,16.9,41.9,25,63C115.5,98.5,106.5,98.8,97.5,98.5z"/>
<path class="st0" d="M1080.5,170.5c-4.4-2-8.9-3.6-13.5-5c-3.7-2.1-6.4-5.1-8-9c-19.9-52.1-40-104.1-60.5-156c-4.4,1.1-8.8,2.4-13,4
	c-21.6,48.6-43.8,96.9-66.5,145c-1.5,2.2-3,4.3-4.5,6.5c-6,2.9-12.4,4.8-19,5.5c0,2,0,4,0,6c18.7-0.2,37.4,0.4,56,2c0-2,0-4,0-6
	c-4.7-1-9.4-2.4-14-4c-2-0.8-3-2.3-3-4.5c5.1-14.9,11.1-29.4,18-43.5c0-1,0-2,0-3c15.8-0.3,31.5,0,47,1c5.4-0.3,10.7,0,16,1
	c6.3,15.8,11.9,31.8,17,48c-0.5,1.4-1.1,2.8-2,4c-4.8,2.1-9.8,3.4-15,4c0,2,0,4,0,6c22,0.7,44,1.7,66,3
	C1081.8,173.7,1081.4,172,1080.5,170.5z M987.5,98.5c-9.7,0.3-19.4,0-29-1c8.9-21.4,18-42.8,27.5-64c8.1,20.6,16,41.2,23.5,62
	C1002.4,97.2,995.1,98.2,987.5,98.5z"/>
<path class="st0" d="M730,146.5c-14.4-18.2-28.5-36.5-42.5-55c9.5-3.1,18.5-7.3,27-12.5c3.9-4.2,7.4-8.7,10.5-13.5
	c6.1-16.5,2.3-30-11.5-40.5c-16-6.6-32.7-9.4-50-8.5c-21.8,1.4-43.8,2.1-66,2c-0.3,2,0.4,3.5,2,4.5c5.6,1.3,11.1,2.8,16.5,4.5
	c1.1,20.8,1.6,41.6,1.5,62.5c-0.2,19.5-0.3,39-0.5,58.5c-0.3,1.3-0.8,2.4-1.5,3.5c-5.3,1.3-10.7,2.7-16,4c-0.9,1.4-1.2,2.9-1,4.5
	c20.7,0,41.3,0.3,62,1c0-1.7,0-3.3,0-5c-5.4-0.8-10.7-2-16-3.5c-0.6-0.8-1.1-1.6-1.5-2.5c-0.5-18.7-0.7-37.3-0.5-56
	c5.3-0.2,10.7,0,16,0.5c1.3,0.7,2.7,1.3,4,2c12,14.5,23.2,29.7,33.5,45.5c4.8,6.2,10.3,11.7,16.5,16.5c3.2,1.7,6.5,3.1,10,4
	c10.6,1.8,21.3,2,32,0.5c0-1.7,0-3.3,0-5C744.8,157.6,736.6,153.6,730,146.5z M642.5,86.5c0-20,0-40,0-60c4.5,0.3,8.9,0,13-1
	c11.9-0.4,23.2,1.7,34,6.5c5.6,4.4,8.8,10.3,9.5,17.5c2,23.4-8.9,35.5-32.5,36.5C658.5,86.5,650.5,86.7,642.5,86.5z"/>
<g>
	<path class="st0" d="M194.5,161.5c1,1.8,1.3,3.8,1,6c-4,0-8,0-12,0c3.5-1,7.1-1.3,11-1C194.5,164.8,194.5,163.2,194.5,161.5z"/>
</g>
<g>
	<path class="st0" d="M443.5,172.5c215.5-2.3,430.9,3.1,646,16c0,2,0,4,0,6c-251.3-9-502.6-11.5-754-7.5
		c-104.8,1.9-209.7,4.4-314.5,7.5c-6.2-0.3-12.3-0.7-18.5-1c-0.8-1.6-1.1-3.2-1-5C148.9,180.4,296.2,175.1,443.5,172.5z"/>
</g>
<g>
	<path class="st0" d="M1089.5,211.5c0,1.3,0,2.7,0,4c-253.3-9-506.6-11.5-760-7.5c-103.8,1.9-207.7,4.4-311.5,7.5
		c-5.7,0-11.2-0.7-16.5-2c0-1.3,0-2.7,0-4c109.6-6.3,219.3-10.8,329-13.5c251.9-6.7,503.5-2.2,755,13.5
		C1087.3,209.6,1088.7,210.3,1089.5,211.5z"/>
</g>
<g>
	<path class="st0" d="M389.5,228.5c8.4-0.3,16.7,0,25,1c-1.8,1.3-3.8,1.9-6,2c0,7,0,14,0,21c8,0,16,0,24,0c0-7,0-14,0-21
		c-2.2-0.1-4.2-0.7-6-2c8.3-1.3,16.7-1.3,25,0c-2.1,1.4-4.4,2.1-7,2c0,16.7,0,33.3,0,50c2.6-0.1,4.9,0.6,7,2c-8.3,1.3-16.7,1.3-25,0
		c1.8-1.3,3.8-1.9,6-2c0-8,0-16,0-24c-8,0-16,0-24,0c0,8,0,16,0,24c2.2,0.1,4.2,0.7,6,2c-8.3,1.3-16.7,1.3-25,0c2-1.7,4.3-2.3,7-2
		c0-16.7,0-33.3,0-50C393.4,231.8,391.1,230.8,389.5,228.5z"/>
</g>
<g>
	<path class="st0" d="M538.5,228.5c16.7,0,33.3,0,50,0c-0.7,5-1.3,10-2,15c-1,0-2,0-3,0c-0.5-3.7-1.2-7.4-2-11c-4,0-8,0-12,0
		c-0.2,16,0,32,0.5,48c2.5,1.1,5,2.1,7.5,3c-9,1.3-18,1.3-27,0c2.1-1.1,4.3-2.1,6.5-3c0.5-16,0.7-32,0.5-48c-4.1-0.3-8.1,0-12,1
		c-1.4,3.2-2.4,6.6-3,10c-1,0-2,0-3,0C539.7,238.5,539.3,233.5,538.5,228.5z"/>
</g>
<g>
	<path class="st0" d="M600.5,228.5c14,0,28,0,42,0c-0.5,5-1.8,9.6-4,14c-1.6-3.1-2.6-6.5-3-10c-5.3,0-10.7,0-16,0c0,7,0,14,0,21
		c3.7,0,7.3,0,11,0c0.3-2,0.7-4,1-6c1,0,2,0,3,0c0,5.7,0,11.3,0,17c-1,0-2,0-3,0c-0.2-2.4-0.5-4.7-1-7c-3.7,0-7.3,0-11,0
		c0,7.7,0,15.3,0,23c5.3,0.2,10.7,0,16-0.5c1.8-3.1,3.5-6.3,5-9.5c0.8-0.9,1.8-1.2,3-1c-0.7,5-1,10-1,15c-14,0.3-28,0-42-1
		c2.1-1.1,4.3-2.1,6.5-3c0.7-16,0.7-32,0-48C604.3,231.8,602.1,230.5,600.5,228.5z"/>
</g>
<g>
	<path class="st0" d="M658.5,228.5c8.4-0.3,16.7,0,25,1c-1.8,1.3-3.8,1.9-6,2c0,16.3,0,32.7,0,49c5,0.2,10,0,15-0.5
		c2-4.1,4.3-7.9,7-11.5c1,5.3,1.3,10.6,1,16c-14,0.3-28,0-42-1c1.8-1.3,3.8-1.9,6-2c0-16.7,0-33.3,0-50
		C661.8,231.6,659.8,230.6,658.5,228.5z"/>
</g>
<path class="st0" d="M492.5,226.5c-14.1,1.9-22.6,9.9-25.5,24c-2.4,21.7,7.1,33.7,28.5,36c17.7-0.2,28.2-8.8,31.5-26
	C528.4,236.4,516.9,225.1,492.5,226.5z M511,274.5c-6.8,8.8-15,10.2-24.5,4c-6.1-11.7-7.6-24-4.5-37c1.7-5.5,5.2-9.2,10.5-11
	c7.3-0.9,13.1,1.5,17.5,7C514.3,249.7,514.6,262,511,274.5z"/>
</svg>
