<?xml version="1.0" encoding="utf-8"?>
<!-- Generator: Adobe Illustrator 24.1.1, SVG Export Plug-In . SVG Version: 6.00 Build 0)  -->
<svg version="1.1" xmlns="http://www.w3.org/2000/svg" xmlns:xlink="http://www.w3.org/1999/xlink" x="0px" y="0px"
	 viewBox="0 0 793.7 793.7" style="enable-background:new 0 0 793.7 793.7;" xml:space="preserve">
<style type="text/css">
	.st0{fill:#2AAB28;}
</style>
<g id="Capa_2">
</g>
<g id="Capa_1">
	<path class="st0" d="M396.2,792.9C182.5,794.3-0.2,619.9,0,396.4C0.2,175.3,181.1-3.5,404.3,0.2C618.3,3.8,794.6,178.8,794,398
		C793.4,618.6,612.4,794.9,396.2,792.9z M397.2,13.8c-206.6-1.5-381.3,167.3-383.7,378c-2.5,213.3,169.5,386.3,380.3,388.1
		c214.2,1.9,385.5-172.1,386.9-380.5C782.1,186.6,607.3,12.6,397.2,13.8z"/>
	<path class="st0" d="M397.6,121.6c152.2,0.1,275.3,123.5,274.9,276.1c-0.3,150.5-121.3,273.4-274.2,274.2
		c-152.7,0.8-276.1-122.3-276.8-273.4C120.8,244.4,245.7,120.9,397.6,121.6z M402.3,365.9c-30.1,0.1-46.3,7.3-63,25.9
		c-4.2,4.7-8.3,9.5-12,14.6c-7.5,10.3-17.1,17.4-29.1,21.5c-2.6,0.9-5.1,2-7.7,3.2c-26.6,11.9-46.9,36.4-45.4,69.3
		c1.4,29.2,23.9,57.1,52.3,63.9c19.6,4.7,38.7,1.9,57.6-3.5c25.3-7.3,50.7-7.9,76.3-2.1c11.5,2.6,22.9,5.6,34.6,7.2
		c19.7,2.7,38-1.3,54.4-13.2c24.5-17.6,35.7-53.2,23.7-81.3c-8.2-19.2-22.1-33-41.3-40.3c-17.3-6.5-31.4-16.2-41.5-31.8
		c-0.2-0.4-0.5-0.7-0.8-1.1C444.4,377.8,424.5,364.8,402.3,365.9z M520.1,291.5c0.1-18.8-3.4-32.3-11.9-44.4
		c-16-23.1-43.4-26.8-65.1-8.9c-10.8,8.9-17.7,20.2-21.8,33.3c-6.6,21.2-5.6,41.9,5.9,61.2c15.7,26.3,44.8,31.1,68.2,11.4
		C513,329.2,519.4,309.5,520.1,291.5z M376.4,296.5c0.3-18.7-5.5-34.8-16.3-49.2c-20.2-26.9-54.6-27.2-74.1-0.7
		c-6.9,9.5-10.6,20.4-11.5,32c-2.1,25.9,4.8,48.7,24.9,66.1c19.8,17.2,46.2,14.7,62.7-5.6C372.1,326.6,376.6,312.1,376.4,296.5z
		 M189.6,372.7c0.6,4.1,0.8,8.2,1.7,12.2c4.1,18.5,13.4,33.5,30.4,42.8c22.4,12.4,47.5,1,53.2-24c5.8-24.9-5.3-52.6-26.7-66.6
		c-17.7-11.6-39.6-7.9-50.6,9C192.4,354.1,189.9,363.1,189.6,372.7z M517.5,389.9c0.2,2.6,0.2,5.2,0.5,7.8
		c3.7,28,29.6,44.8,56.4,29.1c19.6-11.5,35-41.7,27.5-68.6c-6.5-23.1-30.1-34.7-51.3-23.4C528.6,346.4,519.1,365.9,517.5,389.9z"/>
	<path class="st0" d="M361.3,723.8c8.3,4.6,11,10.9,10.3,19c-0.1,1.6,1.2,3.4,2.2,4.9c0.8,1.3,3,2.9,2.8,3.3c-0.9,1.7-2.5,4.2-4,4.4
		c-4.3,0.5-8.9,0.5-13.1-0.2c-6.4-1.1-10.1-5.2-10.9-11.9c-0.5-4.6-1.6-9.1-2.4-13.6c-0.4-2.5-1.6-4.8-4.4-4c-1.4,0.4-3,2.4-3.3,3.9
		c-1.2,5-2.8,10,1.9,14.5c2.2,2.1,0.7,5.4-2.5,5.6c-8.5,0.6-16.9,0.5-24.7-3.6c-5-2.7-5-5-0.4-8.4c1.4-1,3.1-2.5,3.4-4
		c2.1-11.1,4-22.3,5.7-33.5c0.6-3.6-1.1-5.6-5.4-4.8c-0.2,0.9,0,2.2-0.6,2.9c-1.4,1.6-3,3.4-4.8,3.9c-1,0.3-3.5-1.7-4-3.2
		c-2.4-7.3-8.3-10.2-14.8-12.5c-2.5-0.9-4.1-0.2-5.2,2.1c-0.8,1.7-2,3.2-2.4,4.9c-0.4,1.8-0.8,4.7,0.2,5.4c2.2,1.7,5.1,2.7,7.8,0
		c1.4-1.4,3.8-3,5.4-2.7c3.3,0.7,3.1,4.2,2.2,6.5c-2.2,5.6-4.8,11.1-7.8,16.3c-0.7,1.2-3.4,1.4-5.2,2c-0.4-1.6-1-3.1-1.1-4.7
		c-0.2-3.3,0.9-7.2-4.2-7.7c-1.2-0.1-3.2,0.5-3.5,1.3c-1.5,3.8-2.8,7.8-3.6,11.8c-0.2,1,1.8,2.4,2.5,3.8c0.8,1.6,1.8,3.4,1.7,5.1
		c-0.1,0.8-2.5,2.1-3.8,2.1c-9.7-0.4-18.4-4.2-26.8-8.7c-1.6-0.8-2.4-3.7-2.7-5.8c-0.1-0.6,2.7-1.6,4.1-2.5c2-1.5,4.9-2.7,5.7-4.7
		c4.2-9.8,8.1-19.8,11.7-29.9c0.6-1.8-0.9-4.4-1.4-6.6c-0.4-1.6-1.4-4.3-0.9-4.6c1.7-1.1,4.2-2.3,5.8-1.7
		c9.2,3.3,18.3,7.1,27.4,10.6c3.6,1.4,7.2,2.6,10.8,3.8c0.6,0.2,1.4,0.2,1.7,0.6c5.4,6.6,13.4,3.7,20.1,5.2
		c7.2,1.6,14.6,1.7,21.8,3.2c5,1.1,10.2,2.6,14.4,5.3c8.7,5.6,8.1,17.4-0.6,23.1C365.1,721.1,363.6,722.2,361.3,723.8z M339.6,715.9
		c4,0.8,7.4,1.7,9.6-2c2.2-3.8,2.9-7.8,0.3-11.7c-2.1-3.1-5.7-3-6.8,0.2C341.3,706.7,340.6,711.2,339.6,715.9z"/>
	<path class="st0" d="M412.9,724.8c0,4.1,0,8.3,0,12.4c-0.1,4.2,0.8,7.8,5.2,9.9c0.8,0.4,1.4,3.4,0.7,4.3c-1,1.5-3.1,3-4.8,3.1
		c-7.7,0.5-15.5,0.8-23.3,0.7c-1.4,0-3.6-1.6-4-2.9c-0.4-1.2,1.1-3.1,1.8-4.6c0.9-1.9,2.5-3.7,2.5-5.6c0.2-10.4,0.3-20.8-0.1-31.2
		c-0.1-2-2.4-3.9-3.6-5.9c-1-1.6-3-3.3-2.8-4.8c0.1-1.2,2.6-2.7,4.3-3.2c9.7-2.6,19.5-4.3,29.1,0.5c0.7,0.4,1.8,0.5,2.6,0.2
		c6.1-1.6,12.2-3.5,18.3-5c9.5-2.2,19.2-4,28.7-6.3c2.7-0.6,4.5-0.3,5.7,2.2c1.3,2.8,3.2,5.5,3.5,8.4c0.3,2-1.3,4.5-2.7,6.2
		c-0.5,0.6-3.5-0.2-4.6-1.2c-5.7-5.2-12.1-4.3-18.6-2.6c-2.8,0.7-4.1,2.6-3.7,5.5c0.4,2.4,0.6,5,1.5,7.2c0.6,1.5,2.7,3.8,3.5,3.6
		c2-0.6,3.7-2.3,5.4-3.7c0.2-0.2,0-0.9,0.2-1.3c0.9-2.1,1.9-4.1,2.9-6.1c1.8,1.8,4.8,3.3,5.3,5.4c1.3,5.7,1.7,11.7,2,17.6
		c0.1,1.2-1.9,3.1-3.3,3.6c-0.7,0.3-2.3-1.8-3.4-2.8c-1.7-1.4-3.2-3.7-5.2-4.1c-3.1-0.7-4.9,1.2-4.1,4.6c0,0.1,0,0.3,0.1,0.4
		c1.8,4.1-0.2,10.5,5.7,12c7.1,1.8,16-3.3,19-9.8c0.4-1,0.7-2.1,1.3-2.9c1.1-1.3,2.8-3.5,3.5-3.2c1.8,0.7,4,2.2,4.5,3.9
		c1.6,5.7,0.1,11.2-2.9,16.2c-0.6,1-2.2,1.6-3.5,1.8c-15,2.4-30,4.7-45,7c-0.8,0.1-1.7,0.4-2.3,0.1c-1.1-0.7-2.5-1.6-2.9-2.8
		c-0.3-0.8,0.8-2.2,1.4-3.2c1-1.9,3-3.8,2.8-5.5c-1.3-10.8-3.1-21.5-4.8-32.2c-0.2-1.5-1-2.9-1.8-4.2c-2-2.9-4.5-5.2-8.4-4.1
		c-3.7,1-5.6,3.8-5.7,7.5c-0.2,5.1,0,10.1,0,15.2C412.8,724.8,412.9,724.8,412.9,724.8z"/>
	<path class="st0" d="M366.8,68.8c9.7,1,12.9,7.1,15.4,14.3c0.8,2.2,2.9,4.2,4.9,5.6c3.4,2.5,3.8,3.8,1,6.9
		c-6.7,7.4-22.2,5.9-27.2-2.8c-2.1-3.7-3.9-7.7-5.4-11.6c-1.8-4.7-5-5.7-10.2-3.9c1,4.6,1.8,9.2,3.1,13.7c0.3,1.2,2.2,1.9,3.2,2.9
		c1,1,2.3,2.2,2.3,3.4c0,1.2-1,3-2.1,3.5c-8.1,3.7-16.8,4.8-25.6,3.8c-1.8-0.2-3.7-2.5-4.8-4.3c-0.4-0.6,1.6-2.5,2.3-4
		c0.8-1.6,1.9-3.4,1.8-5c-1-11-2-22-3.6-32.9c-0.3-2.2-3.1-4.3-5.2-5.7c-3.3-2.3-3.8-4.9-0.4-7c1.5-0.9,3.3-1.5,5.1-1.8
		c10-1.6,19.9-3.3,30-4.4c4-0.4,8.4-0.2,12.2,1c11.4,3.5,14.4,15.4,6.4,24.4C369.3,65.8,368.4,66.9,366.8,68.8z M343,50.3
		c0,4-0.2,8.1,0.1,12.1c0.1,1.6,1.1,4.2,2,4.4c1.6,0.3,4.1-0.4,5.3-1.6c3.3-3.4,2.4-7.6,0.8-11.6C349.9,50,346.9,49.4,343,50.3z"/>
	<path class="st0" d="M604.9,173.2c-7.4-0.1-13.7-2.9-19.4-7.3c-8.3-6.6-16.5-13.3-24.7-19.9c-1.2-1-2.4-2.1-3.1-3.4
		c-0.6-1.2-1.1-3.2-0.5-4.1c0.8-1.1,3-2.4,4.2-2c3.8,1.2,6.4-0.4,8.5-2.9c6.8-7.9,13.4-15.9,20-24c2.1-2.6,3.3-5.3,1.4-8.8
		c-1.4-2.7,0.7-5.3,3.9-4.8c1.7,0.3,3.6,1.1,5,2.1c8.7,6.6,17.5,13,25.8,20c10.8,9,14,20.6,9.6,32
		C630.3,163.8,617.9,173.2,604.9,173.2z M584,150.8c6.3,8.5,12.5,10,19.4,3.3c5.4-5.3,9.9-12,13.6-18.7c3-5.5,1-10.6-3.6-14.8
		c-2.2-2-3.8-2-5.7,0.3C599.9,130.9,592,140.8,584,150.8z"/>
	<path class="st0" d="M520.1,93c-2.2,4.5-4.6,8.9-6.3,13.6c-0.6,1.6,0.7,3.9,1,5.9c0.3,1.7,1,3.7,0.4,5c-0.5,1.1-2.7,2.1-4.1,2
		c-6.5-0.2-12.3-2.5-17.1-6.9c-4.3-3.9-3.6-6.2,1.6-8.8c2.6-1.3,5.4-3.3,6.7-5.7c4.1-7.7,7.6-15.7,11.1-23.7c1.8-4,1.3-8-1.1-11.8
		c-2.4-3.8-1.2-5.7,3.5-6.1c6.9-0.6,17.3,4.9,20.3,11.2c3.6,7.6,6.7,15.4,10.2,23.1c1.3,2.8,3,5.5,4.6,8.4c7-6.3,7.8-12.2,3.2-19.4
		c1.9-3.7,4.7-5,8.6-3.3c4.7,2.1,9.5,4.2,14,6.8c1.3,0.7,2.3,3.4,1.9,4.9c-0.4,1.5-2.5,3.4-3.9,3.6c-4.1,0.3-5.9,2.8-7.4,6
		c-4.6,9.7-9.1,19.4-13.8,29c-1.1,2.3-2.4,4.6-3.9,6.8c-3.5,5-6.6,4.8-9.4-0.8c-2.1-4.1-3.7-8.4-5.6-12.6c-3.1-7-6.2-14-9.4-20.9
		c-1-2.2-2.4-4.2-3.6-6.2C521.2,92.9,520.6,92.9,520.1,93z"/>
	<path class="st0" d="M546.7,664.3c-1.9-4.6-0.4-7.6,3.6-10.4c8.6-5.9,16.6-12.6,25.3-18.3c16.9-11.3,33-3.6,41.7,10.5
		c9.5,15.5,5.8,31.4-9.2,41.7c-7.3,5-14.6,10.2-21.8,15.2c-1.5,1-3,2.4-4.7,2.9c-1.8,0.5-5,0.8-5.6-0.1c-0.9-1.5-0.2-4-0.2-6.1
		c0-1.5,0.7-3.4,0-4.5c-6-9.4-12.3-18.7-18.5-27.9c-2.7-4-6.5-4-10.6-2.9L546.7,664.3z M571.8,650.7c0.1,0.4,0.1,0.9,0.3,1.3
		c7.1,10.1,14.2,20.3,21.5,30.3c1.9,2.6,4.4,1.5,6.5-0.1c3.9-3.1,5.4-8.3,3.9-13.2c-2.7-8.3-8.1-14.7-14.8-19.9
		C582.7,644,577.6,644.6,571.8,650.7z"/>
	<path class="st0" d="M546.6,664.2c0,0.3,0,0.7-0.2,0.9c-5.5,5.9-3.1,12-0.5,18.2c3.7,8.9,7.2,17.9,10.8,26.8
		c0.1,0.3,0.4,0.5,0.4,0.8c0,2.8,1.1,6.5-0.3,8.1c-1.2,1.4-5.4,1.2-7.9,0.4c-9.3-2.9-18.5-6.5-27.7-9.6c-3.5-1.2-7.1-1.9-10.9-2.9
		c-0.2,9.6,3.6,16.1,10.7,18.6c3.3,1.2,2.9,3.2,1.8,5.4c-2.5,5.3-15.8,10.7-21.1,8.1c-1.2-0.6-1.7-3.7-1.8-5.7
		c0-3.2,1.7-6.7,0.7-9.4c-2.7-8.1-6.2-15.9-9.8-23.7c-1.7-3.7-4.6-6.3-9-7.2c-4.3-0.9-5.2-3.6-1.9-6.4c6-5.1,12.6-9.5,21.1-6.8
		c8.8,2.7,17.4,5.9,26.1,8.8c2.1,0.7,4.3,1,6.6,1.5c0.6-6.9-3-12.9-8.2-14.8c-4.5-1.6-5.5-5.6-1.5-7.9c5-2.8,10.6-4.7,16.1-6.1
		c1.8-0.4,4.2,1.9,6.4,2.9C546.7,664.3,546.6,664.2,546.6,664.2z"/>
	<path class="st0" d="M154.1,218.2c-1.3-2.5-4.7-4-1.9-7.5c0.4-0.5-0.2-2.5-0.9-3.2c-9.3-8.7-18.6-17.3-28-25.8
		c-1.6-1.5-3.7-2.4-6.2-0.4c-0.8,0.7-4,0.2-4.3-0.5c-0.7-1.6-1.2-4.4-0.3-5.6c4.5-5.6,9.6-10.7,14.3-16.2c4.8-5.7,9.7-11.5,14-17.6
		c2.3-3.2,4.8-4.3,8.2-2.9c2.9,1.2,5.8,2.9,8.1,5c1.2,1.1,1.6,3.6,1.3,5.3c-0.2,0.9-2.7,2.1-4,2c-8.2-0.6-12.9,4.7-17.5,10.1
		c-0.8,0.9-1.5,3.1-1,3.7c2.9,3.3,6,6.4,9.4,9.2c0.6,0.5,3.3-0.7,4.2-1.8c0.9-1.1,1.3-3.1,1-4.5c-0.3-1.5-1.7-2.9-2.5-4.3
		c-1.9-3.5-0.9-5.2,3.1-5.2c1.3,0,2.9,0.3,3.9,1c4.1,3.4,8.2,6.9,11.9,10.7c1.2,1.3,1.9,3.5,2,5.4c0.2,3.1-1.5,4.1-4.5,2.9
		c-1.3-0.5-2.6-1.8-3.7-1.6c-2.1,0.4-4.2,1.4-6,2.6c-0.3,0.3,0.7,3.3,1.7,4.4c10.5,10.5,10.8,9.8,19.5-1.6c2.8-3.6,3.8-7.6,1.9-12.1
		c-0.4-1-0.8-2.1-0.7-3.1c0.2-1.7,0.5-4.4,1.4-4.7c1.5-0.5,4.4-0.2,5.3,1c3.1,4,5.6,8.3,8,12.7c0.5,1,0.1,3.3-0.8,4.2
		c-11.8,12.7-23.7,25.2-35.6,37.8C155.4,217.8,155,217.9,154.1,218.2z"/>
	<path class="st0" d="M480.6,70.8c-1.8,5.1-3.5,10.3-5.6,15.3c-0.6,1.3-2.7,2-4.2,3c-0.8-1.5-2.1-2.9-2.4-4.5
		c-0.6-2.6,0.4-5.6-3.9-6c-3.4-0.3-5.4,0.6-5.5,4.2c0,0.3-0.1,0.6-0.1,0.9c0,3.9-4.2,9,1.4,11.5c7.6,3.3,14.2,4.3,19.9-0.6
		c1.3-1.1,2.3-2.6,3.6-3.5c1.3-0.9,3.7-2.4,4.4-1.9c1.5,1.1,3.5,3.9,3.1,4.9c-2.4,5.1-5.4,10.1-8.6,14.8c-0.6,0.8-3.2,0.7-4.7,0.4
		c-13.3-2.9-26.6-5.9-39.9-8.9c-0.9-0.2-1.8-0.3-2.7-0.6c-2.2-0.9-4.3-2-6.4-3c1.5-1.7,3.2-3.4,4.4-5.3c2-3.2,4.5-6.3,5.4-9.8
		c2.2-8.6,3.7-17.4,5.3-26.1c0.7-3.6,0-6.9-3.2-9.5c-1-0.8-1.5-3.3-1.1-4.8c0.2-0.9,2.8-1.7,4.1-1.5c9.2,1.5,18.4,3.3,27.6,4.8
		c5.6,0.9,11.2,1.9,16.8,2.3c3.5,0.3,5.8,1.8,6.1,5c0.3,3.6,0,7.3-0.6,10.8c-0.2,1.1-2.3,2.4-3.7,2.6c-1.1,0.2-2.9-1-3.4-2.1
		c-3.8-7.7-10.9-9.3-18.3-10.3c-1-0.1-2.9,0.5-3.1,1.2c-1.3,4.2-2.4,8.5-3.3,12.8c-0.1,0.6,1.5,2.1,2.3,2.1c2.3-0.1,4.6-0.6,6.8-1.3
		c0.6-0.2,0.6-1.7,1.1-2.4c1-1.2,2.3-2.3,3.4-3.4c1.3,1.4,2.9,2.7,3.8,4.3c0.6,1.1,0.1,2.7,0.1,4.1
		C479.8,70.6,480.2,70.7,480.6,70.8z"/>
	<path class="st0" d="M157.1,614.1c3.7,4.4,6.7,7.4,11.2,2.6c0.6-0.6,2.8-0.4,3.7,0.3c0.9,0.6,1.4,2.4,1.3,3.5
		c-0.7,5.8-11.9,15.8-17.6,15.9c-3,0.1-4-2.5-2.6-5.6c0.8-1.6,1.8-3.7,1.4-5.2c-1.2-4.7-3.5-5.2-7.1-2c-0.9,0.8-1.7,1.8-2.6,2.6
		c-6.5,6.8-6.5,6.9,0.2,13.6c4.5,4.5,9.4,7.2,16.1,4.9c2.4-0.8,5.5-1,6,2.1c0.3,1.9-0.9,5-2.5,6.1c-3.5,2.3-7.6,3.9-11.6,5.2
		c-1.5,0.5-4.1-0.4-5.2-1.6c-9.9-10.7-19.6-21.5-29.2-32.4c-1.1-1.2-2.3-2.6-2.9-4.1c-1.1-2.7,0.9-4.4,3.8-4.3
		c2.8,0.1,6.3,0,8.3-1.6c7-5.4,13.7-11.3,20.1-17.5c3.7-3.5,7.4-7.5,5.7-13.6c-0.2-0.9,1-2.9,2-3.1c1.1-0.3,3,0.2,3.9,1.1
		c5.8,5.7,11.3,11.6,17,17.4c4.5,4.6,9.1,9,13.9,13.4c4.2,3.9,4.6,6,1.2,10.5c-0.6,0.9-1.2,1.9-2.1,2.4c-2.4,1.3-4.9,2.4-7.4,3.6
		c-0.6-2.3-1.7-4.6-1.8-7c-0.1-5.5-5.5-14.5-10.7-16.7c-0.7-0.3-2-0.3-2.5,0.2C163.7,607.9,160.4,611,157.1,614.1z"/>
	<path class="st0" d="M119,269c2.5-9-3-11.3-8-14.2c-7.4-4.3-14.7-8.8-22.2-13.1c-3-1.8-6.1-2.8-9.2,0.5c-0.9,0.9-4.1,1-4.7,0.2
		c-1-1.2-1.4-3.8-0.7-5.1c5-9.8,10.1-19.6,15.4-29.2c7-12.6,21-16.2,30.9-8.1c6.5,5.3,8.8,14,5.5,22.5c-1.8,4.6-4.4,9-6.8,13.9
		c4.9,2.1,8.7,7.3,15.2,3c2.6-1.7,5.3,0.6,4.7,3.8c-1.8,9.1-6,17.1-13,23.2C124.8,267.7,122.4,267.8,119,269z M101.6,213.9
		c-0.8,0.3-2.6,0.8-4,1.8c-4.3,3-4.1,5,0.3,7.7c2.5,1.5,4.8,3.3,7.5,4.4c1.8,0.8,5.4,1.4,5.9,0.6c1.3-2.1,2.2-5.1,1.7-7.4
		C112.1,217.2,106.7,213.9,101.6,213.9z"/>
	<path class="st0" d="M228,138.2c1.8,0.8,4.6,1.2,5.2,2.5c0.7,1.5,0,4.3-1.2,5.8c-6.6,8.6-15.4,14.3-25.6,17.9
		c-1.4,0.5-3.8-1.1-5.2-2.3c-0.5-0.5,0.6-2.7,0.8-4.2c0.3-2.1,1.4-4.9,0.4-6.3c-5.4-8.7-11.2-17.2-17.1-25.6
		c-0.8-1.1-2.8-1.4-4.2-2.1c-0.5,1.4-1.2,2.7-1.4,4.1c-0.4,2.6-0.1,5.4-1,7.7c-0.7,1.9-2.6,4.4-4.2,4.6c-2,0.2-5-1.1-6.2-2.8
		c-3.4-4.8-4.5-10.4-3-16.2c0.5-1.8,2.3-3.6,3.9-4.8c10.2-7.7,20.7-15.2,30.9-23c3.3-2.6,6.7-3.4,10.2-1.4c3.4,1.9,6.9,4.1,9.4,7
		c1.4,1.6,1.9,5.8,0.8,7.3c-1.3,1.9-4.8,2.8-7.4,3c-2.1,0.2-4.2-1.7-6.4-2.1c-1.3-0.2-3.3,0.1-4,1c-0.6,0.7-0.3,3,0.4,4
		c5.3,7.7,10.7,15.3,16.5,22.7c1.7,2.2,4.9,3.3,7.4,4.9C227.4,139.4,227.7,138.8,228,138.2z"/>
	<path class="st0" d="M307,62.2c0,4.3-3.5,6.7-7.2,4.2c-5.9-4-11.6-2.7-17.6-0.9c-4.2,1.2-5.7,3.8-4.3,8c0.4,1.3,0.4,2.9,1.2,3.9
		c1.2,1.5,3.2,3.8,4.2,3.6c2-0.6,3.5-2.6,5.1-4.2c0.4-0.4,0.1-1.5,0.3-2.2c0.5-1.6,1.2-3.1,1.9-4.7c1.8,0.8,4.4,1.1,5.4,2.5
		c4.3,6.2,7.8,12.9,5.6,20.9c-0.3,1.1-1.5,2.6-2.3,2.7c-1.3,0.1-2.8-0.8-3.9-1.6c-0.8-0.6-1-2.3-1.7-2.6c-2.2-0.7-4.6-1.4-6.7-1
		c-0.7,0.1-1.3,3.5-1.1,5.3c0.3,2.2,1.6,4.3,2.4,6.4c1.3,3.4,3.5,5.1,7.3,4.8c1.4-0.1,4,1.1,4,1.7c0,1.7-0.4,4.3-1.7,5.2
		c-8.3,6.1-18,9-28,10.9c-1.2,0.2-3.4-1.8-4.2-3.3c-0.5-1.1,0.5-3,0.9-4.5c0.6-1.9,2.2-4.1,1.8-5.6c-3.5-11.1-7.2-22.1-11.3-32.9
		c-0.7-1.8-3.7-2.7-5.7-4.1c-1.4-1-4-2.2-3.9-2.9c0.3-1.7,1.6-3.8,3.1-4.6c3.1-1.6,6.5-2.5,9.8-3.7c10.5-3.9,20.9-7.7,31.4-11.7
		C298.9,49,307,54.5,307,62.2z"/>
	<path class="st0" d="M122.6,539.6c-0.7-1.8-1.7-3.1-1.4-4c0.5-1.9,1.6-3.7,2.5-5.6c1.5,0.7,3.5,1,4.3,2.2
		c6.8,9.7,13.8,19.2,19.8,29.3c7.6,13.1,1.1,27-13.1,29.1c-8,1.2-14.3-2.4-19-8.8c-2.3-3.2-4.2-6.7-6.5-10.4
		c-5,3-10.4,4.9-10.4,12.2c0,4.1-3.1,3.5-5.1,1.9c-3-2.5-6-5.4-8.1-8.7c-2.6-4.1-4.4-8.7-6.1-13.3c-0.5-1.3,0.4-3.6,1.4-4.8
		c0.4-0.5,2.6,0.4,4.1,0.5c2,0.1,4.3,0.8,6,0.1c3.1-1.3,5.9-3.3,8.7-5.1C107.1,549.4,114.7,544.6,122.6,539.6z M117.2,566.8
		c2.9,4.3,5.7,8.2,9.6,6.6c3.7-1.5,6.7-5.2,9.4-8.5c0.8-1-0.4-4-1.3-5.8c-0.4-0.8-2.7-1.4-3.4-1
		C126.8,560.7,122.3,563.7,117.2,566.8z"/>
	<path class="st0" d="M672.8,269.4c-3.2-2.3-6.7-3.5-8.2-6c-4.2-7.2-7.9-14.8-11.2-22.5c-0.7-1.6,0.8-4.4,1.9-6.2
		c0.3-0.4,3.2,0.9,5,1.3c1.8,0.4,3.7,1.1,5.4,0.7c13.2-3.1,20.6-11.9,23.3-24.9c0.8-3.9,1.5-7.8,1.9-11.8c0.4-4.1,2.6-5.5,6-3.1
		c1.6,1.1,3.1,2.6,4,4.3c3.9,7.1,7.7,14.3,11.1,21.6c2,4.2,0.7,5.5-3.9,6.6c-1.9,0.4-3.9,1.6-5.2,3c-1.6,1.7-3.5,4.1-0.4,6.2
		c2.6,1.7,5.4,3.3,8.2,0.1c0.5-0.6,1-1.2,1.5-1.7c3.4-3.5,4.8-3.7,7.6,0.2c3.1,4.3,5.8,9,8.4,13.7c0.8,1.5,1.1,3.6,0.8,5.3
		c-0.4,3.1-3.4,4.4-5.7,2.3c-6.6-6.3-15.1-7.9-23.5-9.6C689.5,246.8,676.2,256.2,672.8,269.4z"/>
	<path class="st0" d="M243.8,656.9c-1.8,4.6-2.8,8.6-4.9,11.8c-1.3,2-4.6,4.4-6.4,3.9c-2.2-0.5-3.9-3.7-5.5-5.9
		c-0.5-0.7-0.3-2.1-0.4-3.1c-0.4-2.4-0.1-6.2-1.3-6.8c-3.4-1.7-4.9,2.1-6.5,4.3c-4.8,6.5-9.5,13.2-14.2,19.8c-1.9,2.6-2.5,5-0.3,7.9
		c0.8,1,1,3.7,0.3,4.3c-1.4,1.2-3.9,2.5-5.3,2c-10.2-3.5-18.7-9.7-25-18.6c-0.8-1.2-0.7-3.6-0.1-5.1c0.3-0.7,2.8-1.2,4-0.8
		c3.9,1.2,6.4-0.4,8.7-3.3c5.3-6.9,10.8-13.7,16-20.7c1.1-1.4,1.2-3.6,1.8-5.4c-1.8-0.1-3.7-0.3-5.5-0.1c-2.4,0.3-4.9,1.4-7.2,1.2
		c-1.8-0.2-4.2-1.5-5-3c-0.8-1.5-0.6-4.9,0.4-5.7c4-3.1,8.4-6,13-7.9c1.9-0.8,5.3,0.8,7.4,2.2c10.4,7.2,20.8,14.6,30.9,22.2
		C240.8,651.7,242.1,654.5,243.8,656.9z"/>
	<path class="st0" d="M672.2,532.8c0.8,5.8,1.5,11.6,2.4,17.4c1.9,12,10.8,17.6,20.8,21.9c1.3,0.5,3.1-0.3,4.7-0.4
		c1.8-0.1,4.3-0.9,5.3-0.1c1.1,1,1.8,3.9,1.2,5.3c-3,6.3-6.4,12.5-10,18.4c-1.4,2.3-3.6,4.2-5.7,5.9c-1.2,0.9-3.3,1.5-4.5,1
		c-1-0.5-2-2.7-1.8-4c0.3-3.5-1.3-5.8-3.7-7.9c-10.8-9.6-25.6-10.9-39.4-3.6c-1.9,1-4.3,1.2-6.5,1.8c-0.1-2.6-1.1-5.8,0-7.8
		c4.2-7.6,8.9-14.9,13.7-22.1c2.1-3.2,4.7-2.5,7.1,0.3c1.2,1.4,2.9,3.3,4.5,3.3c2,0,5.2-1,5.8-2.5c1.1-2.9,0.2-6.1-3.4-7.4
		c-2.1-0.8-5.9-1.4-5.9-2.2c0-2.9,0.7-6.1,2-8.7c2-3.9,4.4-7.8,7.3-11.1c1.1-1.3,4-1.4,6.1-1.3c0.3,0,0.5,0.3,0.5,0.4
		C673.5,530.4,672.3,532.5,672.2,532.8z"/>
	<path class="st0" d="M645.6,227.6c-2.6-2-4.9-3.2-6.4-5.1c-8.1-10.2-16-20.5-24-30.8c-0.4-0.5-0.9-0.9-1-1.5
		c-0.4-1.7-0.6-3.4-0.8-5.1c1.7-0.2,4.1-1.2,5.1-0.4c3.8,2.6,6.4,0.6,9-1.5c8-6.7,15.9-13.4,23.9-20.2c2.4-2.1,4.1-4.1,1.7-7.4
		c-0.6-0.9-0.4-3.2,0.4-4c0.8-0.9,2.8-1.4,4-1c2,0.6,4.3,1.5,5.6,3c5.1,5.9,10,11.9,14.5,18.2c1,1.4,0.9,4.6-0.1,6.1
		c-0.5,0.9-3.7,0.1-5.7,0.2c-1.7,0.1-3.9-0.3-5,0.6c-8.5,6.7-16.9,13.7-25.3,20.6c-3,2.5-3.2,5-0.6,8.3c4.3,5.4,7.2,6.5,13.7,5.2
		c2-0.4,4.2,0.3,6.3,0.5c-0.6,2.4-0.5,5.7-2,6.9C655.1,223.1,650.4,225,645.6,227.6z"/>
	<path class="st0" d="M626.6,600.1c-3,5.3,1.6,7.8,5,10.9c5.9,5.4,11.8,10.7,17.7,16c2.4,2.2,4.9,4.4,8.5,1.8
		c4.3-3,6.9-8.3,5.6-12.1c-0.4-1.3-1.4-2.4-1.7-3.8c-0.4-1.7-0.9-4.7-0.3-5c1.7-0.8,4.2-1.2,6-0.7c4.5,1.4,10.3,11.2,9.4,15.8
		c-0.3,1.5-1.4,3-2.6,4.2c-8.6,8.9-17.3,17.7-26,26.5c-0.9,0.9-1.6,2-2.7,2.5c-1.3,0.6-3.3,1.3-4,0.7c-1-0.8-1.9-3.1-1.5-4.2
		c1.4-3.7,0.1-6.3-2.5-8.6c-8.1-7.3-16.2-14.5-24.5-21.6c-0.9-0.8-2.9-0.3-4.3-0.3c-2.3,0-4.6,0-6.9,0.1c0.1-1.9-0.3-4,0.4-5.6
		c4.1-8.6,10.5-15.4,18.5-20.6C624,594,626.7,595.6,626.6,600.1z"/>
	<path class="st0" d="M711.3,429.2c-7.9,0-13.2-3.6-14.9-8.9c-2-6.1-0.1-11.1,5.4-15.2c3.8-2.8,7.5-5.7,11.1-8.9
		c8.6-7.8,16.5-7.3,24.4,1.1c2.8,2.9,6.5,5,9.8,7.4c5.8,4,7.9,9.1,6.1,15c-1.8,5.8-7.2,10.3-13.7,9.3
		C729.4,427.5,719.5,425.8,711.3,429.2z"/>
	<path class="st0" d="M82.5,429.1c-8.2-3.9-18.1-1.4-28.1-0.1c-6.5,0.8-11.6-3.1-13.5-8.7c-1.9-5.9,0.3-11.6,5.7-15.5
		c4.1-2.9,8.1-5.9,11.9-9.2c7.6-6.7,15.2-6.4,22.3,0.6c3.2,3.2,7,5.8,10.8,8.4c6.2,4.2,8.3,8.8,6.3,15.2
		C96.1,425.7,91,429.2,82.5,429.1z"/>
	<path class="st0" d="M391.1,92.3c6.3-2.4,7.4-7.5,7.8-12.8c0.6-8.1,0.9-16.2,1.2-24.3c0.2-4-0.9-7.4-4.5-10
		c-3.4-2.5-2.8-5.3,1.4-6.6c9.3-2.7,18.8-2.8,28,0.3c4.9,1.7,5.3,4.4,1.2,7.4c-3.8,2.8-4.6,6.8-4.9,11c-0.5,8.1-0.7,16.2-1.1,24.4
		c-0.2,3.8,1,6.8,4.2,9.1c3.2,2.3,3,4.2-0.2,6.4c-5.5,3.8-24.5,3.4-29.8-0.7C393.4,95.4,392.5,93.9,391.1,92.3z"/>
	<path class="st0" d="M78.7,307.7c5,0.3,7.5,3,9.8,6.3c1.5,2.2,3.1,4.5,5,6.5c4.3,4.6,4.9,8.3,2,12.7c-2.8,4.2-6.8,4.9-12.6,2.9
		c-5.6-1.8-11.4-3.1-17.1-4.4c-5.5-1.2-8.2-3.8-8.6-8.7c-0.3-4.7,2.2-7.9,7.3-9.8c3.3-1.2,6.5-2.7,9.8-3.9
		C75.8,308.7,77.5,308.1,78.7,307.7z"/>
	<path class="st0" d="M707.7,337.3c-5.1,0-8.2-2-10-5.5c-1.7-3.3-0.7-6.5,1.6-9.4c2.7-3.4,5.1-6.8,7.7-10.3c3-4.2,6.8-5.4,11.6-3.4
		c4.4,1.8,8.7,3.6,13,5.6c3.7,1.7,5.6,4.7,5.3,8.8c-0.3,4.1-2.6,6.9-6.5,8c-2.3,0.7-4.9,0.7-7.2,1.3c-3.5,0.9-7,2-10.4,3.1
		C710.7,336.2,708.7,336.9,707.7,337.3z"/>
	<path class="st0" d="M729.9,495c0,8.3-5.4,12.5-12,10.9c-1.2-0.3-2.4-0.6-3.4-1.3c-4.5-2.9-9.4-3.9-14.8-3.9
		c-5.3,0-8.5-3.1-9.5-7.7c-0.8-4.1,1.2-8.3,4.9-9.9c4.2-1.8,8.4-3.5,12.6-5.2c5.7-2.3,9.6-0.8,13,4.2c1.9,2.9,4.3,5.5,6.4,8.3
		C728.4,492.3,729.4,494.2,729.9,495z"/>
	<path class="st0" d="M74,506.3c-7.5,0.1-12.3-7.4-8.6-13.4c3.1-5,7.1-9.5,11-14c2.1-2.4,4.9-3,7.9-1.7c4.9,2.1,9.8,4.2,14.6,6.5
		c3.5,1.7,5.4,4.5,4.9,8.5c-0.5,3.8-2.5,7.3-6.1,7.7c-7.8,0.9-15.2,2.6-22.2,6.2C75,506.4,74.3,506.3,74,506.3z"/>
	<path class="st0" d="M83.9,364.5c5.5,0.1,9.4,4.7,9.4,11.4c0,6.3-5.5,12.9-10.8,12.7c-5.5-0.1-9.2-4.9-9.1-11.6
		C73.5,369.6,77.8,364.4,83.9,364.5z"/>
	<path class="st0" d="M65.4,377.6c-0.2,6-3.7,10.5-8.4,11.1c-4.6,0.5-9.1-3.3-10.6-9c0-0.1-0.1-0.3-0.1-0.4
		c-1.1-5.1-0.6-10.2,3.9-13.2c2.1-1.4,5.9-1.4,8.5-0.5C63.1,366.9,65.6,372.4,65.4,377.6z"/>
	<path class="st0" d="M720.6,377.3c0,6.2-3.4,11-8.3,11.4c-4.7,0.4-9.7-3.8-10.8-9.5c-0.9-5-0.8-10.2,3.9-13.2
		c2.2-1.4,5.9-1.5,8.5-0.8C718.3,366.5,720.6,371.5,720.6,377.3z"/>
	<path class="st0" d="M728.1,377.7c0.9-7.4,4-12.8,9.1-12.9c2.9-0.1,6.6,1,8.5,3c3.4,3.5,3.6,8.4,1.8,12.9
		c-3.2,7.9-10.2,10.4-15.4,5.2C730,383.9,729.4,380.5,728.1,377.7z"/>
	<path class="st0" d="M29.9,391.7c0-4.9,2.7-7.9,7-7.7c4.7,0.1,9.4,6.2,9.3,11.9c-0.1,4.2-3.7,8.1-7.3,8.1
		C34.4,403.8,29.9,397.8,29.9,391.7z"/>
	<path class="st0" d="M109.1,394c-0.8,1.5-1.6,4.5-3.6,6.4c-1.7,1.7-4.8,3.4-6.8,3c-3.4-0.8-6.5-3.4-6-7.6c0.3-2.6,1.1-5.4,2.4-7.7
		c1.8-3.4,5.1-5,8.9-3.8C108,385.6,109,388.9,109.1,394z"/>
	<path class="st0" d="M701.4,397.6c-1.1,1.2-2.8,4.4-5.5,5.5c-1.7,0.7-4.7-1.5-7.1-2.4c-0.4-0.2-0.7-0.6-1-1
		c-3.2-3.7-3.7-9.3-1.3-12.8c1.9-2.8,4.4-3.6,7.6-2.5C698.4,385.9,701.7,391,701.4,397.6z"/>
	<path class="st0" d="M748,395.7c0-6.4,4.2-11.6,9.4-11.6c4.2,0,7.1,3.3,7.1,7.9c-0.1,5.4-5,11.7-9.2,11.8
		C751.6,403.9,748,399.8,748,395.7z"/>
	<path class="st0" d="M96.3,292.8c2.2-0.2,3.6,2.3,4.2,5.3c1,4.3-2.8,10.4-7,11.6c-0.9,0.2-2.1,0.1-3-0.3c-3.5-1.7-4.9-5.7-3.6-10.3
		C88,295.1,90.5,292.9,96.3,292.8z"/>
	<path class="st0" d="M707.7,302.2c0,4.4-2.3,7.5-5.7,7.5c-4.4,0-8.7-5-8.7-10.1c0-3.8,2.6-6.9,5.8-7
		C703.5,292.4,707.7,297.3,707.7,302.2z"/>
	<path class="st0" d="M733.7,468.7c0.1,4.1-3.3,8.8-7,9.9c-3,0.9-8-3.2-7.3-7c0.7-3.3,2.6-7,5.2-9
		C728.7,459.5,733.6,463.1,733.7,468.7z"/>
	<path class="st0" d="M65.9,461.7c4.4-0.1,8.8,4.5,8.9,9.3c0.1,4.1-2.5,7.4-5.8,7.5c-4.1,0-8.3-4.6-8.5-9.2
		C60.3,464.7,62.4,461.8,65.9,461.7z"/>
	<path class="st0" d="M81.6,295.9c-0.1,4.9-3.5,9-7.4,8.9c-3.3-0.1-6.2-3.9-6.2-8.3c0-4.8,3.3-9,7.2-9
		C79.1,287.5,81.7,290.9,81.6,295.9z"/>
	<path class="st0" d="M726,296.3c0,4.4-2.8,8.2-6.2,8.3c-4.4,0.1-7.3-3.5-7.4-9.2c-0.1-4.6,2.7-7.9,6.5-7.8
		C722.8,287.7,726,291.6,726,296.3z"/>
	<path class="st0" d="M707.3,473.5c-3.6,0-6.1-3.8-6-8.7c0.1-5.1,2.9-8.1,7.4-8c3.9,0.1,6.2,2.9,6.2,7.5
		C714.8,469.4,711.4,473.6,707.3,473.5z"/>
	<path class="st0" d="M79.7,464.4c0-5.4,1.9-7.8,6.2-7.7c4.1,0.1,7,3.6,7,8.6c0,4-3.3,8.4-6.4,8.3C82.3,473.5,79.7,470,79.7,464.4z"
		/>
	<path class="st0" d="M65.2,305.1c0.2,3.6-1.3,6-5.1,6.2c-3.1,0.1-5.8-3.2-6-6.9c-0.1-3.9,2.1-6.8,5.3-6.7
		C62.7,297.7,65.1,300.8,65.2,305.1z"/>
	<path class="st0" d="M728.9,304.9c0-4.8,2-7.3,5.8-7.2c4.1,0.1,5,3,5,6.3c0.1,3.8-2.6,7.5-5.3,7.6
		C731.5,311.7,728.9,308.6,728.9,304.9z"/>
	<path class="st0" d="M52.6,482.1c1.1-0.9,2.7-3,4.7-3.6c2.7-0.8,8.1,4.3,7.4,7.3c-0.5,2.2-2.6,5-4.6,5.6
		C57,492.4,52.8,487.6,52.6,482.1z"/>
	<path class="st0" d="M741.6,482c-0.2,5.4-4,9.3-7.2,9.1c-3.1-0.3-5.2-1.8-5.2-5.1c0-3.2,5.1-8.5,7.9-7.6
		C739,479,740.6,481.2,741.6,482z"/>
	<path class="st0" d="M106.8,472.8c0,3.9-3,7.9-5.5,7.9c-2.7,0-5.5-3.5-5.6-6.9c0-3.9,3-7.6,6.1-7.3
		C105.7,467,106.4,469.9,106.8,472.8z"/>
	<path class="st0" d="M697.5,318.9c-0.7,0.7-2.2,3-4.1,3.3c-3.8,0.6-7.9-3.8-7.8-7.9c0-3.1,1.7-4.8,4.9-4.8
		C694.2,309.5,697.4,313.1,697.5,318.9z"/>
	<path class="st0" d="M108.4,313c-0.1,5.5-3.6,9.3-7.2,9.3c-3.9-0.1-4.8-2.9-4.9-6c-0.1-3.1,4.6-7.7,7.4-6.8
		C105.8,310.1,107.4,312.2,108.4,313z"/>
	<path class="st0" d="M697.9,474.8c0,2.9-1.3,5.4-5.1,5.6c-2.8,0.2-5.4-3.8-5.4-7.9c0-3.4,1.5-5.6,5.1-5.8
		C695.8,466.6,697.9,469.6,697.9,474.8z"/>
</g>
</svg>
